<svg xmlns="http://www.w3.org/2000/svg" width="375" height="355" viewBox="0 0 375 355" fill="none">
    <path d="M-8 -412C203.912 -409.778 375 -238.925 375 -28.5C375 181.925 203.912 352.778 -8 355L265.927 -28.5L-8 -412Z" fill="#8F69FF"/>
    <path d="M-12.1777 -411.969C160.044 -409.314 299 -238.646 299 -28.5C299 181.646 160.044 352.314 -12.1762 354.969C-13.5383 354.985 -14.8989 355 -16.2595 355C-223.771 355 -392 183.297 -392 -28.5C-392 -240.297 -223.771 -412 -16.2595 -412C-14.8989 -412 -13.5383 -411.985 -12.1777 -411.969ZM171.989 -28.5C171.989 -134.614 87.7091 -220.637 -16.2595 -220.637C-120.228 -220.637 -204.508 -134.614 -204.508 -28.5C-204.508 77.6141 -120.227 163.636 -16.2595 163.636C87.7076 163.636 171.989 77.6141 171.989 -28.5Z" fill="#3957FF"/>
</svg>
