<svg xmlns="http://www.w3.org/2000/svg" width="416" height="381" viewBox="0 0 416 381" fill="none">
    <path d="M196.947 139.182C197.189 138.94 197.189 138.546 196.947 138.304C190.412 131.77 190.412 121.138 196.947 114.604C197.189 114.361 197.189 113.968 196.947 113.726C196.704 113.484 196.311 113.484 196.069 113.726C189.535 120.26 178.903 120.26 172.369 113.726C172.126 113.484 171.733 113.484 171.491 113.726C171.249 113.968 171.249 114.361 171.491 114.604C178.025 121.138 178.025 131.77 171.491 138.304C171.249 138.546 171.249 138.94 171.491 139.182C171.733 139.424 172.126 139.424 172.369 139.182C178.903 132.648 189.535 132.648 196.069 139.182C196.311 139.424 196.704 139.424 196.947 139.182Z" fill="#1E1E22"/>
    <path d="M130.639 238.549C131.043 238.145 131.043 237.49 130.639 237.086C119.749 226.196 119.749 208.476 130.639 197.586C131.043 197.182 131.043 196.527 130.639 196.123C130.235 195.719 129.58 195.719 129.176 196.123C118.286 207.013 100.566 207.013 89.6756 196.123C89.2718 195.719 88.6164 195.719 88.2126 196.123C87.8088 196.527 87.8088 197.182 88.2126 197.586C99.103 208.476 99.103 226.196 88.2126 237.086C87.8088 237.49 87.8088 238.145 88.2126 238.549C88.6164 238.953 89.2718 238.953 89.6756 238.549C100.566 227.659 118.286 227.659 129.176 238.549C129.58 238.953 130.235 238.953 130.639 238.549Z" fill="#1E1E22"/>
    <path d="M137.072 95.2127C137.207 95.3473 137.425 95.3473 137.56 95.2127C141.19 91.5825 147.096 91.5825 150.726 95.2127C150.861 95.3473 151.079 95.3473 151.214 95.2127C151.349 95.0781 151.349 94.8596 151.214 94.725C147.584 91.0949 147.584 85.1883 151.214 81.5582C151.349 81.4236 151.349 81.2051 151.214 81.0705C151.079 80.9359 150.861 80.9359 150.726 81.0705C147.096 84.7007 141.19 84.7007 137.56 81.0705C137.425 80.9359 137.207 80.9359 137.072 81.0705C136.937 81.2051 136.937 81.4236 137.072 81.5582C140.702 85.1883 140.702 91.0949 137.072 94.725C136.937 94.8596 136.937 95.0781 137.072 95.2127Z" fill="#1E1E22"/>
    <path d="M196.072 21.2132C196.207 21.3477 196.425 21.3478 196.56 21.2132C200.19 17.583 206.096 17.583 209.726 21.2132C209.861 21.3478 210.079 21.3478 210.214 21.2132C210.349 21.0786 210.349 20.8601 210.214 20.7255C206.584 17.0954 206.584 11.1888 210.214 7.55868C210.349 7.42409 210.349 7.20562 210.214 7.07102C210.079 6.93643 209.861 6.93643 209.726 7.07102C206.096 10.7012 200.19 10.7012 196.56 7.07102C196.425 6.93643 196.207 6.93643 196.072 7.07102C195.937 7.20561 195.937 7.42409 196.072 7.55868C199.702 11.1888 199.702 17.0954 196.072 20.7255C195.937 20.8601 195.937 21.0786 196.072 21.2132Z" fill="#1E1E22"/>
    <path d="M298.726 231.182C298.969 231.424 299.362 231.424 299.604 231.182C306.138 224.648 316.77 224.648 323.304 231.182C323.547 231.424 323.94 231.424 324.182 231.182C324.425 230.94 324.425 230.546 324.182 230.304C317.648 223.77 317.648 213.138 324.182 206.604C324.425 206.361 324.425 205.968 324.182 205.726C323.94 205.484 323.547 205.484 323.304 205.726C316.77 212.26 306.138 212.26 299.604 205.726C299.362 205.484 298.969 205.484 298.726 205.726C298.484 205.968 298.484 206.361 298.726 206.604C305.261 213.138 305.261 223.77 298.726 230.304C298.484 230.546 298.484 230.94 298.726 231.182Z" fill="#1E1E22"/>
</svg>
